<?xml version="1.0" encoding="utf-8"?>
<!-- Generator: Adobe Illustrator 20.1.0, SVG Export Plug-In . SVG Version: 6.00 Build 0)  -->
<svg version="1.1" xmlns="http://www.w3.org/2000/svg" xmlns:xlink="http://www.w3.org/1999/xlink" x="0px" y="0px"
	 viewBox="0 0 382.7 194.2" style="enable-background:new 0 0 382.7 194.2;" xml:space="preserve" preserveAspectRatio="xMinYMin slice">
<style type="text/css">
	.st0{fill:#F7A823;}
	.st1{fill:#EC6608;}
	.st2{fill:#E94A8A;}
	.st3{display:none;}
	.st4{display:inline;}
	.st5{fill:none;}
</style>
<g id="Camada_1">
	<g>
		<g>
			<g>
				<path class="st0" d="M0,114c1-2.6,3.1-3.5,5.7-3.9c11.9-1.7,23.8-3.5,35.7-5.3c13.2-2,23.5,2.5,30.9,13.6
					c6.6,9.9,8.7,20.8,7.8,32.4c-0.5,5.9-1.9,11.6-4.5,17c-2.4,5.1-5.7,9.3-9.9,12.9c-5.4,4.6-12,6.2-18.9,6
					c-4.5-0.1-9.1-0.8-13.6-1.3c-7.2-0.8-14.4-1.6-21.6-2.4c-2.2-0.3-4.5-0.5-6.7-0.7c-2.5-0.2-4.1-1.4-4.9-3.8V114z M19,146L19,146
					c0.1,5.3,0.1,10.5,0,15.8c0,1.1,0.2,1.9,1.5,2c8.1,0.3,16.2,0.7,24.3,0.8c4.2,0.1,8-1.3,10.9-4.4c4.4-4.5,6-10.1,5.4-16.3
					c-1.1-10.8-8.1-18-18.1-17.3c-7.3,0.5-14.7,1.2-22,1.7c-1.6,0.1-2.1,0.9-2.1,2.4C19,135.8,19,140.9,19,146"/>
				<path class="st0" d="M162.7,96c0.2,8.9,0.3,17.4,0.5,26.3c-0.8,0-1.4,0-2,0c-16.8,0.3-33.5,0.7-50.3,1c-2.6,0.1-2.9,0.4-2.9,3.1
					c0,3.2,0,6.3,0,9.7c0.9,0,1.4,0,2,0c17-0.2,34-0.4,51-0.6c2.1,0,2.2,0,2.2,2.1c0.1,4.9,0.1,9.9,0.2,14.8c0,1.5-0.5,1.8-1.8,1.8
					c-17-0.1-34-0.2-51-0.2c-0.7,0-1.4,0-2,0c0,4.1-0.1,8,0,11.9c0,1.5,1.3,1.6,2.5,1.6c8.4,0.2,16.8,0.4,25.2,0.5
					c8.7,0.1,17.4,0.2,26.1,0.3c0.9,0,1.5,0,1.5,1.2c0.1,7.9,0.2,15.7,0.3,23.6c0,0.3-0.1,0.5-0.1,0.9c-0.5,0-0.9,0.1-1.3,0.1
					c-13.5-0.5-27-0.9-40.4-1.5c-7.9-0.3-15.8-0.8-23.7-1.3c-3.7-0.2-6.3-2.1-7.7-5.5c-0.7-1.9-1.3-4-1.3-6.1
					c-0.3-16.3-0.5-32.6-0.7-48.9c-0.1-6.1-0.3-12.3-0.2-18.4c0-2.2,0.3-4.5,0.9-6.7c1-3.9,3.9-6.1,7.8-6.5
					c6.7-0.6,13.4-1.1,20.1-1.4c13.7-0.6,27.5-1.1,41.3-1.6C160,95.9,161.3,96,162.7,96"/>
				<path class="st0" d="M172.2,144.6c-0.3-13.9-0.5-27.7-0.8-41.6c0-0.7,0-1.4,0-2.1c0.3-3.7,1.7-5.1,5.4-5.1
					c13.2,0.2,26.4,0.3,39.7,0.8c9.3,0.3,16.8,4.9,22.7,11.9c10.4,12.2,14.3,26.4,13.2,42.2c-0.8,10.5-4,20.2-10.3,28.7
					c-4.4,5.9-9.6,10.9-16.9,13c-2.3,0.7-4.7,1.2-7.1,1.3c-13.3,0.2-26.6,0.3-39.8,0.4c-3.2,0-4.7-1.3-5.2-4.5
					c-0.2-1.2-0.2-2.4-0.2-3.5C172.5,172.4,172.4,158.5,172.2,144.6 M216.2,167.4c5.6-0.1,10-2.6,13.1-7.3c5-7.6,5.4-15.8,2.6-24.3
					c-2.5-7.6-8.1-13.7-18.6-13.5c-6.7,0.1-13.4-0.1-20.2-0.2c-1.9,0-2.3,0.3-2.2,2.2c0,2.8,0.4,29.9,0.6,40.6
					c0,2.3,0.2,2.5,2.5,2.5C197.8,167.6,212.5,167.5,216.2,167.4"/>
				<path class="st0" d="M365.6,142.9c0,0.6,0.1,1.1,0.1,1.5c0,10.8,0,21.6,0,32.4c0,3.5-1.4,5.1-4.7,5.5
					c-10.8,1.4-21.6,2.7-32.4,4.3c-8.9,1.3-16.7-0.7-23.8-6.1c-4.8-3.7-8.1-8.5-10.5-13.9c-5.5-12.5-6.2-25.4-2-38.4
					c2.3-7.2,6.3-13.3,12.3-17.9c5.6-4.3,12.2-6,19.2-5.2c13.6,1.7,27.2,3.7,40.8,5.7c0.3,0,0.5,0.2,0.8,0.2v18.7
					c-3.5-0.3-34.2-2.5-36.5-2.8c-11-1.3-18.7,4.6-20,15.7c-1,8.2,1.4,15.2,8.5,20.1c2.5,1.8,5.4,2.6,8.4,2.5
					c6.4-0.2,12.8-0.6,19.2-0.9c1.6-0.1,1.8-1,1.8-2.3c0-5.9,0-11.8-0.1-17.7c0-0.6,0-1.3,0-2.2
					C353.1,142.4,359.3,142.7,365.6,142.9"/>
				<path class="st0" d="M281.4,191.2c-6.5,0.4-12.7,0.7-19.1,1.1c-0.4-31.1-0.9-62.1-1.3-93.4c6.5,0.5,12.8,0.9,19.3,1.4
					C280.7,130.7,281,160.7,281.4,191.2"/>
			</g>
			<g>
				<path class="st1" d="M312.3,133.5h-21.4c-2.5,11.2-1.3,22.3,3.4,33.2c2.4,5.4,5.7,10.2,10.5,13.9c7,5.4,14.9,7.5,23.8,6.1
					c10.8-1.6,21.6-2.9,32.4-4.3c3.3-0.4,4.7-2,4.7-5.5c0-10.8,0-21.6,0-32.4c0-0.4,0-0.8-0.1-1.5c-6.3-0.3-12.5-0.5-18.8-0.8
					c0,0.9,0,1.5,0,2.2c0,5.9,0,11.8,0.1,17.7c0,1.3-0.3,2.2-1.8,2.3c-6.4,0.3-12.8,0.7-19.2,0.9c-3,0.1-5.8-0.7-8.4-2.5
					c-7-4.9-9.4-11.9-8.5-20.1C309.4,139,310.6,135.9,312.3,133.5"/>
				<path class="st1" d="M4.9,182.3c2.2,0.2,4.5,0.5,6.7,0.7c7.2,0.8,14.4,1.6,21.6,2.4c4.5,0.5,9.1,1.2,13.6,1.3
					c6.9,0.2,13.5-1.4,18.9-6c4.2-3.6,7.6-7.8,9.9-12.9c2.5-5.4,4-11.1,4.5-17c0.5-6,0.2-11.7-1.2-17.3H57.7
					c1.9,2.8,3.1,6.3,3.5,10.4c0.6,6.2-1,11.8-5.4,16.3c-3,3-6.8,4.4-10.9,4.4c-8.1-0.1-16.2-0.5-24.3-0.8c-1.3,0-1.5-0.9-1.5-2
					c0-5.3,0-10.5,0-15.8H19c0-4.2,0-8.3,0-12.5H0v45C0.8,180.9,2.4,182.1,4.9,182.3"/>
				<path class="st1" d="M172.2,144.6c0.2,13.9,0.4,27.7,0.6,41.6c0,1.2,0.1,2.4,0.2,3.5c0.5,3.2,2,4.5,5.2,4.5
					c13.3-0.1,26.6-0.1,39.8-0.4c2.4,0,4.8-0.6,7.1-1.3c7.4-2.1,12.5-7.1,16.9-13c6.3-8.5,9.5-18.2,10.3-28.7c0.4-6,0.1-11.8-1-17.4
					h-20.5c0.4,0.8,0.7,1.6,1,2.4c2.8,8.4,2.4,16.6-2.6,24.3c-3.1,4.7-7.5,7.2-13.1,7.3c-3.7,0.1-18.4,0.1-22.1,0.1
					c-2.3,0-2.5-0.2-2.5-2.5c-0.1-7.3-0.4-22-0.5-31.6H172C172,137.2,172.1,140.9,172.2,144.6"/>
				<path class="st1" d="M262.3,192.3c6.4-0.4,12.6-0.7,19.1-1.1c-0.2-19.3-0.5-38.5-0.7-57.7h-19.2
					C261.8,153.1,262,172.6,262.3,192.3"/>
				<path class="st1" d="M89.7,179.5c0,2,0.6,4.2,1.3,6.1c1.3,3.4,4,5.3,7.7,5.5c7.9,0.5,15.8,1,23.7,1.3c13.5,0.6,27,1,40.4,1.5
					c0.4,0,0.8-0.1,1.3-0.1c0-0.3,0.1-0.6,0.1-0.9c-0.1-7.9-0.2-15.7-0.3-23.6c0-1.2-0.7-1.2-1.5-1.2c-8.7-0.1-17.4-0.1-26.1-0.3
					c-8.4-0.1-16.8-0.3-25.2-0.5c-1.2,0-2.5-0.1-2.5-1.6c-0.1-3.9,0-7.8,0-11.9c0.7,0,1.3,0,2,0c17,0.1,34,0.1,51,0.2
					c1.4,0,1.9-0.3,1.8-1.8c-0.2-4.9-0.2-9.9-0.2-14.8c0-2.1-0.1-2.1-2.2-2.1c-17,0.2-34,0.4-51,0.6c-0.6,0-1.2,0-2,0
					c0-0.9,0-1.7,0-2.6H89.1C89.3,148.8,89.4,164.1,89.7,179.5"/>
			</g>
			<g>
				<path class="st1" d="M60.5,52.7l-20,2C37,55.1,34,54.9,31.3,54c-2.6-0.9-4.9-2.2-6.9-3.9c-1.7-1.5-3.1-3.4-4.2-5.5
					c-1.1-2.1-1.8-4.4-2-6.9c-0.3-2.8,0-5.4,0.8-8c0.8-2.5,2.1-4.8,3.9-6.7c1.5-1.8,3.4-3.2,5.6-4.3c2.2-1.1,4.9-1.8,8-2.2l20-2
					l1,10.1l-20,2c-1.7,0.2-3.1,0.5-4.2,1.1c-1.1,0.6-2,1.3-2.8,2.1c-0.8,0.9-1.4,2-1.8,3.1c-0.4,1.2-0.5,2.4-0.4,3.7
					c0.1,1.2,0.4,2.3,1,3.2c0.5,1,1.2,1.8,2,2.6c0.9,0.8,2,1.4,3.3,1.8s2.9,0.5,4.7,0.3l20-2L60.5,52.7z"/>
				<path class="st1" d="M83.1,51.2c-3.4,0.2-6.5-0.2-9.1-1.1c-2.6-1-4.9-2.3-6.8-4.2c-1.7-1.6-3-3.5-4-5.6c-1-2.1-1.6-4.5-1.7-7
					c-0.2-2.8,0.2-5.4,1.2-7.9c0.9-2.5,2.3-4.7,4.1-6.6c1.6-1.7,3.5-3.1,5.8-4.1c2.3-1,5-1.6,8.1-1.8l8.1-0.5
					c3.1-0.2,5.8,0.1,8.2,0.8c2.4,0.7,4.5,1.9,6.3,3.3c2,1.7,3.7,3.7,4.9,6c1.2,2.4,2,4.9,2.1,7.7c0.2,2.5-0.1,4.9-0.9,7.2
					c-0.7,2.2-1.8,4.3-3.3,6.1c-1.7,2-3.7,3.7-6.2,5c-2.5,1.3-5.4,2-8.9,2.2L83.1,51.2z M81.3,23c-1.7,0.1-3.2,0.4-4.3,0.9
					c-1.1,0.5-2.1,1.2-2.8,2c-0.8,0.9-1.4,1.9-1.9,3.1c-0.4,1.2-0.6,2.4-0.5,3.7c0.1,1.2,0.3,2.3,0.8,3.3c0.5,1,1.1,1.9,1.9,2.6
					c0.9,0.9,2,1.5,3.3,2c1.3,0.5,2.8,0.6,4.6,0.5l8.1-0.5c1.8-0.1,3.3-0.5,4.5-1.1c1.2-0.6,2.2-1.4,3-2.4c0.7-0.8,1.2-1.8,1.6-2.9
					c0.4-1.1,0.5-2.2,0.4-3.4c-0.1-1.3-0.4-2.5-1-3.6c-0.6-1.1-1.3-2-2.3-2.8c-0.9-0.7-1.9-1.2-3.1-1.6c-1.2-0.4-2.6-0.5-4.4-0.4
					L81.3,23z"/>
				<path class="st1" d="M128.2,49c-2.3,0.1-4.3-0.1-6-0.6c-1.6-0.5-2.9-1.2-3.9-2.2c-1-1-1.7-2.3-2.2-3.9c-0.5-1.6-0.7-3.4-0.8-5.5
					L114.6,11l10.3-0.3l0.7,24.9c0,1.4,0.3,2.4,0.8,2.8c0.5,0.5,1.4,0.7,2.7,0.7l26.6-0.7l0.3,9.8L128.2,49z"/>
				<path class="st1" d="M200.2,10l0,10.2L171,20c-0.6,0-0.9,0.3-0.9,1l0,4.4l29.9,0.1l0,7.4L170,32.8l0,4.7c0,0.7,0.3,1,0.9,1
					l29.2,0.1l0,9.8l-35-0.1c-3.6,0-5.4-1.8-5.4-5.4l0.1-27.9c0-3.4,1.8-5.2,5.5-5.2L200.2,10z"/>
				<path class="st1" d="M244.3,49.8l-20.1-0.7c-3.4-0.1-6.4-0.8-8.9-2c-2.5-1.2-4.6-2.8-6.3-4.8c-1.5-1.8-2.6-3.7-3.4-6
					c-0.8-2.2-1.2-4.6-1.1-7.1c0.1-2.8,0.7-5.4,1.9-7.8c1.2-2.4,2.8-4.4,4.7-6.2c1.8-1.5,3.8-2.7,6.2-3.5c2.4-0.8,5.1-1.2,8.2-1.1
					l20.1,0.7l-0.3,10.2l-20.1-0.7c-1.7-0.1-3.2,0.1-4.3,0.5c-1.2,0.4-2.2,1-3,1.7c-0.9,0.8-1.6,1.8-2.2,2.9
					c-0.5,1.1-0.8,2.3-0.9,3.6c0,1.2,0.1,2.3,0.5,3.3c0.4,1.1,0.9,2,1.7,2.8c0.8,0.9,1.8,1.7,3.1,2.3c1.2,0.6,2.8,0.9,4.6,0.9
					l20.1,0.7L244.3,49.8z M232.4,52.2l-7.8,11.2l-8.1-0.3l5.9-11.3L232.4,52.2z"/>
				<path class="st1" d="M297.5,51.4c0.1,0.3,0.2,0.6,0.3,0.9c0.1,0.3,0.1,0.6,0.2,0.9l-11.6-0.7c-0.1-0.3-0.1-0.5-0.2-0.7
					c-0.1-0.2-0.1-0.4-0.2-0.6l-1.7-4.8l-22.7-1.5l-2.3,4.5c-0.1,0.2-0.2,0.4-0.3,0.7s-0.2,0.4-0.2,0.7l-11.9-0.8
					c0.1-0.3,0.2-0.6,0.3-0.8c0.1-0.3,0.3-0.5,0.4-0.8l15.7-29.5c1.3-2.3,2.8-4,4.7-5.1c1.9-1.1,4.2-1.5,6.9-1.3
					c2.7,0.2,4.9,0.9,6.6,2.2c1.7,1.3,3.1,3.2,4,5.6L297.5,51.4z M290,9l-29.2-1.9l0.5-7.1l29.2,1.9L290,9z M281.2,37.6l-5-14.1
					c-0.2-0.4-0.4-0.7-0.7-1c-0.3-0.2-0.6-0.3-1-0.3c-0.3,0-0.7,0-1,0.2c-0.3,0.2-0.6,0.4-0.8,0.9L266,36.6L281.2,37.6z"/>
				<path class="st1" d="M316.5,55c-3.4-0.3-6.4-1.2-8.8-2.5c-2.4-1.4-4.4-3.1-6-5.2c-1.4-1.8-2.4-3.9-3.1-6.2
					c-0.7-2.3-0.9-4.7-0.6-7.2c0.3-2.8,1.1-5.3,2.4-7.6c1.3-2.3,3-4.3,5.1-5.8c1.9-1.4,4-2.5,6.4-3.1c2.4-0.7,5.2-0.8,8.2-0.5l8,0.8
					c3.1,0.3,5.8,1,8,2.1c2.2,1.1,4.1,2.5,5.7,4.3c1.8,2,3.1,4.2,3.9,6.7c0.9,2.5,1.2,5.2,0.9,8c-0.2,2.5-0.9,4.8-2,6.9
					c-1.1,2.1-2.5,3.9-4.2,5.5c-2,1.8-4.3,3.1-6.9,3.9c-2.6,0.9-5.7,1.1-9.1,0.8L316.5,55z M319.2,26.8c-1.7-0.2-3.2-0.1-4.4,0.3
					c-1.2,0.3-2.2,0.9-3.1,1.5c-0.9,0.7-1.7,1.7-2.4,2.7c-0.6,1.1-1,2.3-1.1,3.5c-0.1,1.2,0,2.3,0.3,3.4c0.3,1.1,0.8,2,1.5,2.9
					c0.7,1,1.7,1.8,2.9,2.5c1.2,0.6,2.7,1.1,4.5,1.2l8,0.8c1.8,0.2,3.4,0.1,4.7-0.3c1.3-0.4,2.4-1,3.3-1.8c0.8-0.7,1.5-1.6,2-2.6
					c0.5-1,0.8-2.1,0.9-3.2c0.1-1.3,0-2.5-0.4-3.7c-0.4-1.2-1-2.2-1.8-3.1c-0.8-0.8-1.7-1.5-2.8-2.1c-1.1-0.6-2.5-0.9-4.2-1.1
					L319.2,26.8z"/>
			</g>
			<path class="st2" d="M0.2,83.9c0,0,1.5-0.3,4.2-0.8c2.8-0.5,6.8-1.2,12-2c5.2-0.8,11.5-1.7,18.7-2.6c3.6-0.4,7.5-0.9,11.5-1.4
				c4.1-0.4,8.3-0.9,12.8-1.3c2.2-0.2,4.5-0.4,6.8-0.7c1.2-0.1,2.3-0.2,3.5-0.3c0.6-0.1,1.2-0.1,1.8-0.2l0.2,0l0.1,0l0.2,0l0.4,0
				c0.2,0,0.5,0,0.7,0.1c0.2,0,0.4,0.1,0.6,0.1c1.6,0.4,2.8,1.1,4,1.8c1.1,0.8,2.1,1.6,3.1,2.4c1.9,1.6,3.8,3.2,5.7,4
				c0.5,0.2,0.9,0.3,1.3,0.4c0.2,0,0.4,0,0.6,0l0.1,0c0,0-0.1,0,0,0c0.1,0,0.2,0,0.2,0c0,0,0,0,0,0c0,0,0,0,0.1,0
				c0.5-0.2,1.3-0.9,2-1.8c1.5-1.8,2.8-4.1,4.1-6.4c1.3-2.3,2.7-4.7,4.3-7.1c0.8-1.2,1.7-2.4,3-3.6c0.6-0.6,1.3-1.2,2.3-1.6
				c0.5-0.2,1-0.4,1.6-0.5c0.1,0,0.3,0,0.5-0.1c0.1,0,0.1,0,0.3,0l0.1,0c0.2,0,0.3,0,0.6,0c0.3,0,0.5,0,0.8,0.1l0.7,0.1
				c0.4,0.1,0.9,0.2,1.3,0.4c0.8,0.3,1.6,0.6,2.3,1c1.4,0.7,2.7,1.6,3.9,2.4c2.4,1.7,4.6,3.4,6.8,4.4c1.1,0.5,2.1,0.8,3,0.7
				c1.4-0.1,2.9-0.1,4.3-0.2c2.9-0.1,5.8-0.2,8.8-0.3c11.8-0.3,23.7-0.5,35.7-0.6c3,0,6,0,9,0c3,0,6,0.1,8.9,0.1
				c3,0,5.9,0.1,8.9,0.1c3,0.1,5.9,0.1,8.9,0.2c11.8,0.2,23.3,0.6,34.5,1.2c5.6,0.3,11.1,0.5,16.5,0.9c5.4,0.4,10.6,0.7,15.8,1.1
				c5.1,0.4,10.1,0.7,14.9,1.2c4.8,0.4,9.5,0.8,13.9,1.3c8.9,0.9,17.1,1.8,24.3,2.7c7.2,0.9,13.5,1.8,18.7,2.5
				c5.2,0.7,9.2,1.5,12,1.9c2.8,0.5,4.2,0.8,4.2,0.8s-1.5-0.2-4.3-0.4c-2.8-0.3-6.9-0.6-12.1-1.1c-2.6-0.2-5.5-0.5-8.6-0.7
				c-3.1-0.2-6.5-0.5-10.1-0.8c-3.6-0.3-7.5-0.5-11.5-0.8c-4.1-0.3-8.3-0.5-12.8-0.8c-8.9-0.5-18.6-1-28.8-1.5
				c-5.1-0.3-10.4-0.4-15.7-0.6c-5.4-0.3-10.9-0.4-16.4-0.6c-5.6-0.2-11.3-0.3-17-0.4c-5.7-0.1-11.6-0.2-17.4-0.3
				c-2.9,0-5.9-0.1-8.8-0.1c-3,0-5.9,0-8.9,0c-5.9,0-11.9,0-17.8-0.1c-11.9,0-23.8,0.2-35.6,0.4c-2.9,0.1-5.9,0.1-8.8,0.2
				c-1.5,0-2.9,0.1-4.4,0.1c-2,0-3.8-0.6-5.3-1.3c-3-1.5-5.3-3.4-7.6-5c-1.1-0.8-2.2-1.6-3.3-2.1c-0.5-0.3-1.1-0.5-1.6-0.7
				c-0.3-0.1-0.5-0.2-0.7-0.2l-0.3-0.1c-0.1,0-0.2,0-0.2,0c-0.1,0-0.3,0-0.5,0l-0.1,0c0.2,0,0,0,0.1,0c0,0,0,0-0.1,0
				c-0.1,0-0.2,0-0.4,0.1c-0.3,0.1-0.7,0.4-1.1,0.8c-0.8,0.7-1.6,1.7-2.3,2.8c-1.5,2.1-2.8,4.4-4.2,6.8c-1.4,2.3-2.8,4.7-4.6,6.9
				c-0.5,0.6-1,1.1-1.6,1.7c-0.6,0.5-1.4,1.1-2.4,1.4l-0.4,0.1c-0.2,0-0.3,0.1-0.5,0.1c-0.2,0-0.2,0-0.3,0c0.1,0-0.2,0-0.3,0l-0.2,0
				c-0.5,0-0.9,0-1.3-0.1c-0.9-0.1-1.7-0.4-2.4-0.7c-2.8-1.3-4.7-3.2-6.6-4.8c-0.9-0.8-1.8-1.6-2.7-2.2c-0.9-0.6-1.8-1.1-2.6-1.3
				l-0.4-0.1l-0.4,0c-0.1,0,0.1,0,0,0l-0.1,0l-0.2,0c-0.6,0-1.2,0.1-1.8,0.1c-1.2,0.1-2.4,0.1-3.5,0.2c-2.3,0.1-4.6,0.3-6.8,0.4
				c-4.5,0.3-8.7,0.5-12.8,0.8c-4.1,0.3-7.9,0.5-11.5,0.8c-7.2,0.6-13.6,1.1-18.8,1.5c-5.2,0.5-9.3,0.9-12.1,1.1
				C1.7,83.7,0.2,83.9,0.2,83.9z"/>
		</g>
		<g>
			<path class="st1" d="M377.1,171c0.9,0,1.8,0.2,2.7,0.7c0.9,0.5,1.6,1.2,2.1,2.1c0.5,0.9,0.7,1.8,0.7,2.8c0,1-0.2,1.9-0.7,2.8
				c-0.5,0.9-1.2,1.6-2.1,2.1c-0.9,0.5-1.8,0.7-2.8,0.7s-1.9-0.2-2.8-0.7s-1.6-1.2-2.1-2.1c-0.5-0.9-0.7-1.8-0.7-2.8
				c0-1,0.3-1.9,0.7-2.8c0.5-0.9,1.2-1.6,2.1-2.1C375.3,171.2,376.2,171,377.1,171z M377.1,171.9c-0.8,0-1.5,0.2-2.3,0.6
				s-1.3,1-1.7,1.7c-0.4,0.7-0.6,1.5-0.6,2.3c0,0.8,0.2,1.6,0.6,2.3c0.4,0.7,1,1.3,1.7,1.7c0.7,0.4,1.5,0.6,2.3,0.6s1.6-0.2,2.3-0.6
				c0.7-0.4,1.3-1,1.7-1.7c0.4-0.7,0.6-1.5,0.6-2.3c0-0.8-0.2-1.6-0.6-2.3c-0.4-0.7-1-1.3-1.7-1.7
				C378.6,172.1,377.9,171.9,377.1,171.9z M374.7,179.6v-6h2.1c0.7,0,1.2,0.1,1.5,0.2c0.3,0.1,0.6,0.3,0.8,0.6
				c0.2,0.3,0.3,0.6,0.3,0.9c0,0.4-0.2,0.8-0.5,1.1c-0.3,0.3-0.7,0.5-1.2,0.5c0.2,0.1,0.4,0.2,0.5,0.3c0.2,0.2,0.5,0.6,0.9,1.2
				l0.7,1.2h-1.2l-0.5-0.9c-0.4-0.7-0.8-1.2-1-1.4c-0.2-0.1-0.4-0.2-0.8-0.2h-0.6v2.5H374.7z M375.6,176.2h1.2
				c0.6,0,0.9-0.1,1.1-0.3c0.2-0.2,0.3-0.4,0.3-0.7c0-0.2,0-0.3-0.1-0.5c-0.1-0.1-0.2-0.2-0.4-0.3c-0.2-0.1-0.5-0.1-1-0.1h-1.1
				V176.2z"/>
		</g>
	</g>
</g>
<g id="Camada_2" class="st3">
	<g class="st4">
		<g>
			<path class="st0" d="M8.9,89.8c1-2.6,3.1-3.5,5.7-3.9c11.9-1.7,23.7-3.5,35.6-5.3c13.1-2,23.5,2.5,30.8,13.6
				c6.6,9.8,8.7,20.7,7.7,32.3c-0.5,5.9-1.9,11.6-4.5,17c-2.4,5.1-5.7,9.3-9.9,12.9c-5.4,4.6-11.9,6.2-18.9,6
				c-4.5-0.1-9.1-0.8-13.6-1.3c-7.2-0.8-14.4-1.6-21.5-2.4c-2.2-0.3-4.5-0.5-6.7-0.7c-2.4-0.2-4.1-1.4-4.8-3.8V89.8z M27.9,121.8
				L27.9,121.8c0.1,5.3,0.1,10.5,0,15.8c0,1.1,0.2,1.9,1.5,2c8.1,0.3,16.2,0.7,24.3,0.8c4.1,0.1,8-1.3,10.9-4.4
				c4.4-4.5,5.9-10.1,5.3-16.2c-1-10.8-8.1-18-18.1-17.3c-7.3,0.5-14.6,1.2-22,1.7c-1.6,0.1-2.1,0.9-2.1,2.4
				C27.9,111.6,27.9,116.7,27.9,121.8"/>
			<path class="st0" d="M171.2,71.9c0.2,8.8,0.3,17.4,0.5,26.3c-0.8,0-1.4,0-2,0c-16.7,0.3-33.5,0.7-50.2,1
				c-2.6,0.1-2.9,0.4-2.9,3.1c0,3.1,0,6.3,0,9.6c0.8,0,1.4,0,2,0c17-0.2,33.9-0.4,50.9-0.6c2.1,0,2.2,0,2.2,2.1
				c0.1,4.9,0.1,9.9,0.2,14.8c0,1.5-0.5,1.8-1.8,1.8c-17-0.1-33.9-0.2-50.9-0.2c-0.7,0-1.4,0-2,0c0,4.1-0.1,8,0,11.9
				c0,1.5,1.3,1.6,2.5,1.6c8.4,0.2,16.7,0.4,25.1,0.5c8.7,0.1,17.4,0.2,26.1,0.3c0.9,0,1.5,0,1.5,1.2c0.1,7.8,0.2,15.7,0.3,23.5
				c0,0.3-0.1,0.5-0.1,0.9c-0.5,0-0.9,0.1-1.3,0.1c-13.5-0.5-26.9-0.9-40.4-1.5c-7.9-0.3-15.7-0.8-23.6-1.3
				c-3.6-0.2-6.3-2.1-7.6-5.5c-0.7-1.9-1.3-4-1.3-6.1c-0.3-16.3-0.5-32.5-0.7-48.8c-0.1-6.1-0.3-12.2-0.2-18.3
				c0-2.2,0.3-4.5,0.9-6.6c1-3.9,3.9-6.1,7.8-6.5c6.7-0.6,13.4-1.1,20.1-1.4c13.7-0.6,27.4-1.1,41.2-1.6
				C168.6,71.9,169.8,71.9,171.2,71.9"/>
			<path class="st0" d="M180.7,120.4c-0.3-13.8-0.5-27.7-0.8-41.5c0-0.7,0-1.4,0-2.1c0.3-3.7,1.7-5.1,5.4-5
				c13.2,0.2,26.4,0.3,39.6,0.8c9.3,0.3,16.7,4.9,22.7,11.9c10.3,12.2,14.3,26.4,13.1,42.1c-0.8,10.5-4,20.2-10.3,28.7
				c-4.4,5.9-9.6,10.9-16.9,13c-2.3,0.6-4.7,1.2-7.1,1.3c-13.2,0.2-26.5,0.3-39.7,0.4c-3.2,0-4.7-1.3-5.2-4.5
				c-0.2-1.2-0.2-2.3-0.2-3.5C181.1,148.1,180.9,134.3,180.7,120.4 M224.6,143.2c5.6-0.1,10-2.6,13.1-7.2c5-7.6,5.4-15.8,2.6-24.2
				c-2.5-7.6-8.1-13.7-18.5-13.5c-6.7,0.1-13.4-0.1-20.1-0.2c-1.9,0-2.2,0.3-2.2,2.2c0,2.8,0.4,29.8,0.6,40.5c0,2.3,0.2,2.5,2.5,2.5
				C206.2,143.3,220.9,143.2,224.6,143.2"/>
			<path class="st0" d="M373.7,118.7c0,0.6,0.1,1.1,0.1,1.5c0,10.8,0,21.6,0,32.4c0,3.5-1.4,5.1-4.7,5.5
				c-10.8,1.4-21.6,2.7-32.3,4.3c-8.9,1.3-16.7-0.7-23.7-6.1c-4.8-3.7-8.1-8.5-10.4-13.9c-5.4-12.5-6.2-25.3-2-38.3
				c2.3-7.1,6.3-13.3,12.3-17.9c5.6-4.3,12.2-6,19.1-5.2c13.6,1.7,27.2,3.7,40.7,5.6c0.3,0,0.5,0.2,0.8,0.2v18.6
				c-3.5-0.3-34.1-2.5-36.4-2.8c-11-1.3-18.7,4.6-20,15.6c-0.9,8.2,1.4,15.2,8.5,20.1c2.5,1.8,5.3,2.6,8.3,2.5
				c6.4-0.2,12.8-0.6,19.1-0.9c1.6-0.1,1.8-1,1.8-2.3c0-5.9,0-11.8-0.1-17.7c0-0.6,0-1.3,0-2.1C361.2,118.2,367.4,118.5,373.7,118.7
				"/>
			<path class="st0" d="M289.7,166.8c-6.5,0.4-12.6,0.7-19.1,1.1c-0.4-31.1-0.9-61.9-1.3-93.1c6.4,0.5,12.8,0.9,19.2,1.4
				C288.9,106.5,289.3,136.5,289.7,166.8"/>
		</g>
		<g>
			<path class="st1" d="M320.5,109.3h-21.3c-2.5,11.2-1.3,22.3,3.4,33.1c2.4,5.4,5.7,10.2,10.4,13.9c7,5.4,14.8,7.4,23.7,6.1
				c10.7-1.6,21.5-2.9,32.3-4.3c3.3-0.4,4.7-2,4.7-5.5c0-10.8,0-21.6,0-32.4c0-0.4,0-0.8-0.1-1.5c-6.3-0.3-12.4-0.5-18.7-0.8
				c0,0.9,0,1.5,0,2.2c0,5.9,0,11.8,0.1,17.7c0,1.3-0.3,2.2-1.8,2.3c-6.4,0.3-12.7,0.7-19.1,0.9c-3,0.1-5.8-0.7-8.3-2.5
				c-7-4.9-9.4-11.9-8.5-20.1C317.6,114.8,318.8,111.7,320.5,109.3"/>
			<path class="st1" d="M13.8,158c2.2,0.2,4.5,0.5,6.7,0.7c7.2,0.8,14.4,1.6,21.5,2.4c4.5,0.5,9,1.2,13.6,1.3
				c6.9,0.2,13.4-1.4,18.9-6c4.2-3.6,7.6-7.8,9.9-12.9c2.5-5.4,4-11.1,4.5-17c0.5-5.9,0.2-11.7-1.2-17.2H66.4
				c1.9,2.8,3.1,6.3,3.5,10.4c0.6,6.1-1,11.7-5.3,16.2c-2.9,3-6.8,4.4-10.9,4.4c-8.1-0.1-16.2-0.5-24.3-0.8c-1.3,0-1.5-0.9-1.5-2
				c0-5.3,0-10.5,0-15.8h-0.1c0-4.2,0-8.3,0-12.5H8.9v44.9C9.7,156.6,11.3,157.8,13.8,158"/>
			<path class="st1" d="M180.7,120.4c0.2,13.8,0.4,27.7,0.6,41.5c0,1.2,0.1,2.4,0.2,3.5c0.5,3.2,2,4.5,5.2,4.5
				c13.2-0.1,26.5-0.1,39.7-0.4c2.4,0,4.8-0.6,7.1-1.3c7.3-2.1,12.5-7.1,16.9-13c6.3-8.5,9.5-18.2,10.3-28.7c0.4-6,0.1-11.8-1-17.3
				h-20.4c0.4,0.8,0.7,1.6,1,2.4c2.8,8.4,2.4,16.6-2.6,24.2c-3.1,4.7-7.5,7.1-13.1,7.2c-3.6,0.1-18.3,0.1-22,0.1
				c-2.3,0-2.5-0.2-2.5-2.5c-0.1-7.2-0.4-21.9-0.5-31.5h-19C180.6,113,180.6,116.7,180.7,120.4"/>
			<path class="st1" d="M270.6,168c6.4-0.4,12.6-0.7,19.1-1.1c-0.2-19.3-0.5-38.4-0.7-57.6h-19.2C270.1,128.9,270.3,148.4,270.6,168
				"/>
			<path class="st1" d="M98.4,155.2c0,2,0.6,4.2,1.3,6.1c1.3,3.4,4,5.3,7.6,5.5c7.9,0.5,15.7,1,23.6,1.3c13.4,0.6,26.9,1,40.4,1.5
				c0.4,0,0.8-0.1,1.3-0.1c0-0.3,0.1-0.6,0.1-0.9c-0.1-7.8-0.2-15.7-0.3-23.5c0-1.2-0.7-1.2-1.5-1.2c-8.7-0.1-17.4-0.1-26.1-0.3
				c-8.4-0.1-16.7-0.3-25.1-0.5c-1.2,0-2.5-0.1-2.5-1.6c-0.1-3.9,0-7.8,0-11.9c0.7,0,1.3,0,2,0c17,0.1,33.9,0.1,50.9,0.2
				c1.4,0,1.9-0.3,1.8-1.8c-0.2-4.9-0.2-9.9-0.2-14.8c0-2.1-0.1-2.1-2.2-2.1c-17,0.2-33.9,0.4-50.9,0.6c-0.6,0-1.1,0-2,0
				c0-0.9,0-1.7,0-2.6H97.8C98,124.6,98.2,139.9,98.4,155.2"/>
		</g>
		<path id="SVGID_x5F_1_x5F_" class="st5" d="M-35.2,43.3c0,0,80.9-19,218.4-19s234.6,19,234.6,19"/>
		<text>		<textPath  xlink:href="#SVGID_x5F_1_x5F_" startOffset="0.83%">
<tspan  class="st1" style="font-family:'NulshockRg-Bold'; font-size:56.6929px;">COLEÇÃO</tspan>		</textPath>
</text>
		<g>
			<path class="st2" d="M9.1,59.8c0,0,1.5-0.3,4.2-0.8c2.8-0.5,6.8-1.2,11.9-2c5.2-0.8,11.4-1.7,18.6-2.6c3.6-0.4,7.4-0.9,11.5-1.4
				c4.1-0.4,8.3-0.9,12.8-1.3c2.2-0.2,4.5-0.4,6.8-0.7c1.2-0.1,2.3-0.2,3.5-0.3c0.6-0.1,1.2-0.1,1.8-0.2l0.2,0l0.1,0l0.2,0l0.4,0
				c0.2,0,0.5,0,0.7,0.1c0.2,0,0.4,0.1,0.6,0.1c1.6,0.4,2.8,1.1,4,1.8c1.1,0.8,2.1,1.6,3.1,2.4c1.9,1.6,3.8,3.2,5.7,4
				c0.5,0.2,0.9,0.3,1.3,0.4c0.2,0,0.4,0,0.6,0l0.1,0c0,0-0.1,0,0,0c0.1,0,0.2,0,0.2,0c0,0,0,0,0,0c0,0,0,0,0.1,0
				c0.5-0.2,1.3-0.9,2-1.8c1.5-1.8,2.8-4.1,4.1-6.4c1.3-2.3,2.7-4.7,4.3-7.1c0.8-1.2,1.7-2.4,2.9-3.6c0.6-0.6,1.3-1.2,2.3-1.6
				c0.5-0.2,1-0.4,1.6-0.5c0.1,0,0.3,0,0.5-0.1c0.1,0,0.1,0,0.3,0l0.1,0c0.2,0,0.3,0,0.6,0c0.3,0,0.5,0,0.8,0.1l0.7,0.1
				c0.4,0.1,0.9,0.2,1.3,0.4c0.8,0.3,1.6,0.6,2.3,1c1.4,0.7,2.7,1.6,3.9,2.4c2.4,1.7,4.6,3.4,6.8,4.4c1.1,0.5,2.1,0.8,3,0.7
				c1.4-0.1,2.9-0.1,4.3-0.2c2.9-0.1,5.8-0.2,8.8-0.3c11.7-0.3,23.7-0.5,35.6-0.6c3,0,6,0,9,0c3,0,5.9,0.1,8.9,0.1
				c3,0,5.9,0.1,8.9,0.1c3,0.1,5.9,0.1,8.8,0.2c11.8,0.2,23.3,0.6,34.5,1.2c5.6,0.3,11.1,0.5,16.4,0.9c5.4,0.4,10.6,0.7,15.7,1.1
				c5.1,0.4,10.1,0.7,14.9,1.2c4.8,0.4,9.4,0.8,13.9,1.3c8.9,0.9,17,1.8,24.3,2.7c7.2,0.9,13.5,1.8,18.6,2.5c5.2,0.7,9.2,1.5,12,1.9
				c2.7,0.5,4.2,0.8,4.2,0.8s-1.5-0.2-4.3-0.4c-2.8-0.2-6.9-0.6-12-1.1c-2.6-0.2-5.5-0.5-8.6-0.7c-3.1-0.2-6.5-0.5-10.1-0.8
				c-3.6-0.3-7.5-0.5-11.5-0.8c-4.1-0.3-8.3-0.5-12.8-0.8c-8.9-0.5-18.6-1-28.8-1.5c-5.1-0.3-10.3-0.4-15.7-0.6
				c-5.4-0.3-10.8-0.4-16.4-0.6c-5.6-0.2-11.2-0.3-17-0.4c-5.7-0.1-11.5-0.2-17.4-0.3c-2.9,0-5.9-0.1-8.8-0.1c-3,0-5.9,0-8.9,0
				c-5.9,0-11.9,0-17.8-0.1c-11.9,0-23.8,0.2-35.5,0.4c-2.9,0.1-5.8,0.1-8.7,0.2c-1.5,0-2.9,0.1-4.4,0.1c-2,0-3.8-0.6-5.3-1.3
				c-3-1.5-5.3-3.4-7.5-5c-1.1-0.8-2.2-1.6-3.3-2.1c-0.5-0.3-1.1-0.5-1.6-0.7c-0.3-0.1-0.5-0.2-0.7-0.2l-0.3-0.1c-0.1,0-0.2,0-0.2,0
				c-0.1,0-0.3,0-0.5,0l-0.1,0c0.2,0,0,0,0.1,0c0,0,0,0-0.1,0c-0.1,0-0.2,0-0.4,0.1c-0.3,0.1-0.7,0.4-1.1,0.8
				c-0.8,0.7-1.6,1.7-2.3,2.8c-1.5,2.1-2.8,4.4-4.2,6.7c-1.4,2.3-2.8,4.7-4.6,6.9c-0.5,0.6-1,1.1-1.6,1.7c-0.6,0.5-1.4,1.1-2.4,1.4
				l-0.4,0.1c-0.2,0-0.3,0.1-0.5,0.1c-0.2,0-0.2,0-0.3,0c0.1,0-0.2,0-0.3,0l-0.2,0c-0.5,0-0.9,0-1.3-0.1c-0.9-0.1-1.7-0.4-2.4-0.7
				c-2.8-1.3-4.7-3.2-6.6-4.8c-0.9-0.8-1.8-1.6-2.7-2.2c-0.9-0.6-1.8-1.1-2.6-1.3l-0.4-0.1l-0.4,0c-0.1,0,0.1,0,0,0l-0.1,0l-0.2,0
				c-0.6,0-1.2,0.1-1.8,0.1c-1.2,0.1-2.3,0.1-3.5,0.2c-2.3,0.1-4.6,0.3-6.8,0.4c-4.5,0.3-8.7,0.5-12.8,0.8
				c-4.1,0.3-7.9,0.5-11.5,0.8c-7.2,0.6-13.5,1.1-18.7,1.5c-5.2,0.5-9.3,0.9-12,1.1C10.6,59.6,9.1,59.8,9.1,59.8z"/>
		</g>
	</g>
</g>
</svg>
