<?xml version="1.0" encoding="utf-8"?>
<!-- Generator: Adobe Illustrator 20.1.0, SVG Export Plug-In . SVG Version: 6.00 Build 0)  -->
<svg version="1.0" id="Camada_1" xmlns="http://www.w3.org/2000/svg" xmlns:xlink="http://www.w3.org/1999/xlink" x="0px" y="0px"
	 viewBox="0 0 385.7 193.8" style="enable-background:new 0 0 385.7 193.8;" xml:space="preserve">
<style type="text/css">
	.st0{fill:#FFFFFF;}
</style>
<g>
	<g>
		<path class="st0" d="M60.3,52.6l-20,2c-3.4,0.3-6.4,0.1-9.1-0.8c-2.6-0.9-4.9-2.2-6.9-3.9c-1.7-1.5-3.1-3.4-4.2-5.4
			c-1.1-2.1-1.8-4.4-2-6.9c-0.3-2.8,0-5.4,0.8-7.9c0.8-2.5,2.1-4.8,3.9-6.7c1.5-1.8,3.4-3.2,5.6-4.3c2.2-1.1,4.9-1.8,8-2.1l20-2
			l1,10.1l-20,2c-1.7,0.2-3.1,0.5-4.2,1.1c-1.1,0.6-2,1.3-2.7,2.1c-0.8,0.9-1.4,2-1.8,3.1c-0.4,1.2-0.5,2.4-0.4,3.7
			c0.1,1.2,0.4,2.2,1,3.2s1.2,1.8,2,2.6c0.9,0.8,2,1.4,3.3,1.8s2.8,0.5,4.6,0.3l20-2L60.3,52.6z"/>
		<path class="st0" d="M82.9,51.1c-3.4,0.2-6.4-0.2-9-1.1c-2.6-1-4.8-2.3-6.7-4.2c-1.7-1.6-3-3.5-4-5.6c-1-2.1-1.6-4.5-1.7-7
			c-0.2-2.8,0.2-5.4,1.2-7.9c0.9-2.5,2.3-4.7,4.1-6.6c1.6-1.7,3.5-3.1,5.8-4.1s4.9-1.6,8-1.8l8-0.5c3.1-0.2,5.8,0.1,8.2,0.8
			c2.4,0.7,4.5,1.9,6.3,3.3c2,1.7,3.7,3.7,4.9,6c1.2,2.3,2,4.9,2.1,7.7c0.2,2.5-0.1,4.9-0.9,7.2c-0.7,2.2-1.8,4.3-3.3,6.1
			c-1.7,2-3.7,3.7-6.2,5c-2.5,1.3-5.4,2-8.8,2.2L82.9,51.1z M81.1,23c-1.7,0.1-3.2,0.4-4.3,0.9c-1.1,0.5-2,1.2-2.8,2
			c-0.8,0.9-1.4,1.9-1.9,3.1c-0.4,1.2-0.6,2.4-0.5,3.7c0.1,1.2,0.3,2.3,0.8,3.3c0.5,1,1.1,1.9,1.9,2.6c0.9,0.9,2,1.5,3.2,2
			c1.3,0.5,2.8,0.6,4.6,0.5l8-0.5c1.8-0.1,3.3-0.5,4.5-1.1c1.2-0.6,2.2-1.4,3-2.3c0.7-0.8,1.2-1.8,1.6-2.9c0.4-1.1,0.5-2.2,0.4-3.3
			c-0.1-1.3-0.4-2.5-1-3.6c-0.6-1.1-1.3-2-2.2-2.8c-0.9-0.7-1.9-1.2-3.1-1.6c-1.2-0.4-2.6-0.5-4.3-0.4L81.1,23z"/>
		<path class="st0" d="M127.9,48.9c-2.3,0.1-4.3-0.1-5.9-0.6c-1.6-0.5-2.9-1.2-3.9-2.2c-1-1-1.7-2.3-2.2-3.9
			c-0.5-1.6-0.7-3.4-0.8-5.5l-0.7-25.8l10.3-0.3l0.7,24.9c0,1.4,0.3,2.3,0.8,2.8c0.5,0.5,1.4,0.7,2.7,0.7l26.6-0.7l0.3,9.8
			L127.9,48.9z"/>
		<path class="st0" d="M199.7,9.9l0,10.1L170.6,20c-0.6,0-0.9,0.3-0.9,1l0,4.4l29.9,0.1l0,7.4l-29.9-0.1l0,4.6c0,0.7,0.3,1,0.9,1
			l29.1,0.1l0,9.8l-34.9-0.1c-3.6,0-5.4-1.8-5.4-5.3l0.1-27.8c0-3.4,1.8-5.2,5.5-5.1L199.7,9.9z"/>
		<path class="st0" d="M243.7,49.7L223.7,49c-3.4-0.1-6.4-0.8-8.9-2c-2.5-1.2-4.6-2.8-6.3-4.8c-1.5-1.8-2.6-3.7-3.4-6
			c-0.8-2.2-1.2-4.6-1.1-7.1c0.1-2.8,0.7-5.4,1.9-7.8c1.2-2.4,2.8-4.4,4.7-6.1c1.8-1.5,3.8-2.7,6.2-3.5c2.4-0.8,5.1-1.2,8.2-1.1
			l20.1,0.7l-0.3,10.1l-20.1-0.7c-1.7-0.1-3.2,0.1-4.3,0.5c-1.1,0.4-2.2,1-3,1.7c-0.9,0.8-1.6,1.8-2.2,2.9c-0.5,1.1-0.8,2.3-0.9,3.6
			c0,1.2,0.1,2.3,0.5,3.3c0.4,1.1,0.9,2,1.7,2.8c0.8,0.9,1.8,1.7,3,2.3c1.2,0.6,2.8,0.9,4.6,0.9l20.1,0.7L243.7,49.7z M231.8,52.1
			l-7.8,11.2L216,63l5.9-11.3L231.8,52.1z"/>
		<path class="st0" d="M296.8,51.3c0.1,0.3,0.2,0.6,0.3,0.9c0.1,0.3,0.1,0.6,0.2,0.9l-11.5-0.7c-0.1-0.3-0.1-0.5-0.2-0.7
			c-0.1-0.2-0.1-0.4-0.2-0.6l-1.7-4.8l-22.6-1.5l-2.3,4.5c-0.1,0.2-0.2,0.4-0.3,0.7s-0.2,0.4-0.2,0.7l-11.8-0.8
			c0.1-0.3,0.2-0.6,0.3-0.8c0.1-0.3,0.3-0.5,0.4-0.8l15.7-29.4c1.2-2.3,2.8-4,4.6-5c1.8-1.1,4.1-1.5,6.9-1.3
			c2.7,0.2,4.9,0.9,6.6,2.2c1.7,1.3,3,3.2,4,5.6L296.8,51.3z M289.3,9l-29.1-1.9l0.5-7.1l29.1,1.9L289.3,9z M280.5,37.5l-5-14.1
			c-0.2-0.4-0.4-0.7-0.7-1c-0.3-0.2-0.6-0.3-1-0.3c-0.3,0-0.7,0-1,0.2c-0.3,0.2-0.6,0.4-0.8,0.9l-6.7,13.3L280.5,37.5z"/>
		<path class="st0" d="M315.7,54.8c-3.4-0.3-6.3-1.2-8.8-2.5c-2.4-1.4-4.4-3.1-6-5.2c-1.4-1.8-2.4-3.9-3-6.2
			c-0.7-2.3-0.9-4.7-0.6-7.2c0.3-2.8,1.1-5.3,2.4-7.6c1.3-2.3,3-4.2,5.1-5.8c1.8-1.4,4-2.5,6.4-3.1c2.4-0.7,5.1-0.8,8.2-0.5l8,0.8
			c3.1,0.3,5.7,1,8,2.1c2.2,1.1,4.1,2.5,5.6,4.3c1.7,2,3,4.2,3.9,6.7c0.9,2.5,1.1,5.2,0.9,7.9c-0.2,2.5-0.9,4.8-2,6.9
			c-1.1,2.1-2.5,3.9-4.2,5.5c-2,1.7-4.2,3.1-6.9,3.9s-5.7,1.1-9.1,0.8L315.7,54.8z M318.5,26.8c-1.7-0.2-3.2-0.1-4.4,0.3
			c-1.2,0.3-2.2,0.8-3.1,1.5c-0.9,0.7-1.7,1.7-2.3,2.7c-0.6,1.1-1,2.3-1.1,3.5c-0.1,1.2,0,2.3,0.3,3.4c0.3,1.1,0.8,2,1.5,2.9
			c0.7,1,1.7,1.8,2.9,2.4c1.2,0.6,2.7,1.1,4.5,1.2l8,0.8c1.8,0.2,3.4,0.1,4.6-0.3c1.3-0.4,2.4-1,3.3-1.8c0.8-0.7,1.5-1.6,2-2.6
			c0.5-1,0.8-2.1,0.9-3.2c0.1-1.3,0-2.5-0.4-3.7c-0.4-1.2-1-2.2-1.8-3.1c-0.8-0.8-1.7-1.5-2.8-2.1c-1.1-0.6-2.5-0.9-4.2-1.1
			L318.5,26.8z"/>
	</g>
	<path class="st0" d="M0.2,83.7c0,0,1.5-0.3,4.2-0.8c2.8-0.5,6.8-1.2,11.9-2c5.2-0.8,11.4-1.7,18.6-2.6c3.6-0.4,7.4-0.9,11.5-1.4
		c4.1-0.4,8.3-0.9,12.8-1.3c2.2-0.2,4.5-0.4,6.8-0.7c1.2-0.1,2.3-0.2,3.5-0.3c0.6-0.1,1.2-0.1,1.8-0.2l0.2,0l0.1,0l0.2,0l0.4,0
		c0.2,0,0.5,0,0.7,0.1c0.2,0,0.4,0.1,0.6,0.1c1.6,0.4,2.8,1.1,4,1.8c1.1,0.8,2.1,1.6,3.1,2.4c1.9,1.6,3.8,3.2,5.7,4
		c0.5,0.2,0.9,0.3,1.3,0.4c0.2,0,0.4,0,0.6,0l0.1,0c0,0-0.1,0,0,0c0.1,0,0.2,0,0.2,0c0,0,0,0,0,0c0,0,0,0,0.1,0
		c0.5-0.2,1.3-0.9,2-1.8c1.5-1.8,2.8-4.1,4.1-6.4c1.3-2.3,2.7-4.7,4.3-7.1c0.8-1.2,1.7-2.4,2.9-3.6c0.6-0.6,1.3-1.2,2.3-1.6
		c0.5-0.2,1-0.4,1.6-0.5c0.1,0,0.3,0,0.5-0.1c0.1,0,0.1,0,0.3,0l0.1,0c0.2,0,0.3,0,0.6,0c0.3,0,0.5,0,0.8,0.1l0.7,0.1
		c0.4,0.1,0.9,0.2,1.3,0.4c0.8,0.3,1.6,0.6,2.3,1c1.4,0.7,2.7,1.6,3.9,2.4c2.4,1.7,4.6,3.4,6.8,4.4c1.1,0.5,2.1,0.8,3,0.7
		c1.4-0.1,2.9-0.1,4.3-0.2c2.9-0.1,5.8-0.2,8.8-0.3c11.7-0.3,23.7-0.5,35.6-0.6c3,0,6,0,9,0c3,0,5.9,0.1,8.9,0.1s5.9,0.1,8.9,0.1
		c3,0.1,5.9,0.1,8.8,0.2c11.8,0.2,23.3,0.6,34.5,1.2c5.6,0.3,11.1,0.5,16.4,0.9c5.4,0.4,10.6,0.7,15.7,1.1
		c5.1,0.4,10.1,0.7,14.9,1.2c4.8,0.4,9.4,0.8,13.9,1.3c8.9,0.9,17,1.8,24.3,2.7c7.2,0.9,13.5,1.8,18.6,2.5c5.2,0.7,9.2,1.5,12,1.9
		c2.7,0.5,4.2,0.8,4.2,0.8s-1.5-0.2-4.3-0.4c-2.8-0.2-6.9-0.6-12-1.1c-2.6-0.2-5.5-0.5-8.6-0.7c-3.1-0.2-6.5-0.5-10.1-0.8
		c-3.6-0.3-7.5-0.5-11.5-0.8c-4.1-0.3-8.3-0.5-12.8-0.8c-8.9-0.5-18.6-1-28.8-1.5c-5.1-0.3-10.3-0.4-15.7-0.6
		c-5.4-0.3-10.8-0.4-16.4-0.6c-5.6-0.2-11.2-0.3-17-0.4c-5.7-0.1-11.5-0.2-17.4-0.3c-2.9,0-5.9-0.1-8.8-0.1c-3,0-5.9,0-8.9,0
		c-5.9,0-11.9,0-17.8-0.1c-11.9,0-23.8,0.2-35.5,0.4c-2.9,0.1-5.8,0.1-8.7,0.2c-1.5,0-2.9,0.1-4.4,0.1c-2,0-3.8-0.6-5.3-1.3
		c-3-1.5-5.3-3.4-7.5-5c-1.1-0.8-2.2-1.6-3.3-2.1c-0.5-0.3-1.1-0.5-1.6-0.7c-0.3-0.1-0.5-0.2-0.7-0.2l-0.3-0.1c-0.1,0-0.2,0-0.2,0
		c-0.1,0-0.3,0-0.5,0l-0.1,0c0.2,0,0,0,0.1,0c0,0,0,0-0.1,0c-0.1,0-0.2,0-0.4,0.1c-0.3,0.1-0.7,0.4-1.1,0.8
		c-0.8,0.7-1.6,1.7-2.3,2.8c-1.5,2.1-2.8,4.4-4.2,6.7c-1.4,2.3-2.8,4.7-4.6,6.9c-0.5,0.6-1,1.1-1.6,1.7c-0.6,0.5-1.4,1.1-2.4,1.4
		l-0.4,0.1c-0.2,0-0.3,0.1-0.5,0.1c-0.2,0-0.2,0-0.3,0c0.1,0-0.2,0-0.3,0l-0.2,0c-0.5,0-0.9,0-1.3-0.1c-0.9-0.1-1.7-0.4-2.4-0.7
		c-2.8-1.3-4.7-3.2-6.6-4.8c-0.9-0.8-1.8-1.6-2.7-2.2c-0.9-0.6-1.8-1.1-2.6-1.3l-0.4-0.1l-0.4,0c-0.1,0,0.1,0,0,0l-0.1,0l-0.2,0
		c-0.6,0-1.2,0.1-1.8,0.1c-1.2,0.1-2.3,0.1-3.5,0.2c-2.3,0.1-4.6,0.3-6.8,0.4c-4.5,0.3-8.7,0.5-12.8,0.8c-4.1,0.3-7.9,0.5-11.5,0.8
		c-7.2,0.6-13.5,1.1-18.7,1.5c-5.2,0.5-9.3,0.9-12,1.1C1.7,83.5,0.2,83.7,0.2,83.7z"/>
	<g>
		<path class="st0" d="M378.2,166.7c1.3,0,2.5,0.3,3.7,1c1.2,0.6,2.1,1.6,2.8,2.8c0.7,1.2,1,2.5,1,3.8c0,1.3-0.3,2.5-1,3.7
			c-0.7,1.2-1.6,2.1-2.8,2.8c-1.2,0.7-2.4,1-3.7,1c-1.3,0-2.5-0.3-3.7-1c-1.2-0.7-2.1-1.6-2.8-2.8c-0.7-1.2-1-2.4-1-3.7
			c0-1.3,0.3-2.6,1-3.8c0.7-1.2,1.6-2.1,2.8-2.8C375.7,167,376.9,166.7,378.2,166.7z M378.2,167.9c-1.1,0-2.1,0.3-3.1,0.8
			c-1,0.5-1.8,1.3-2.3,2.3c-0.6,1-0.8,2.1-0.8,3.1c0,1.1,0.3,2.1,0.8,3.1c0.6,1,1.3,1.8,2.3,2.3c1,0.6,2,0.8,3.1,0.8
			c1.1,0,2.1-0.3,3.1-0.8c1-0.6,1.8-1.3,2.3-2.3c0.6-1,0.8-2,0.8-3.1c0-1.1-0.3-2.1-0.8-3.1c-0.6-1-1.3-1.8-2.3-2.3
			S379.2,167.9,378.2,167.9z M374.9,178.3v-8.1h2.8c0.9,0,1.6,0.1,2.1,0.2c0.4,0.1,0.8,0.4,1,0.8c0.3,0.4,0.4,0.8,0.4,1.2
			c0,0.6-0.2,1.1-0.6,1.5c-0.4,0.4-1,0.7-1.7,0.7c0.3,0.1,0.5,0.3,0.7,0.4c0.3,0.3,0.7,0.9,1.2,1.6l1,1.6h-1.6l-0.7-1.3
			c-0.6-1-1-1.6-1.4-1.9c-0.2-0.2-0.6-0.3-1-0.3h-0.8v3.4H374.9z M376.2,173.8h1.6c0.8,0,1.3-0.1,1.5-0.3c0.3-0.2,0.4-0.5,0.4-0.9
			c0-0.2-0.1-0.5-0.2-0.6c-0.1-0.2-0.3-0.3-0.6-0.4c-0.2-0.1-0.7-0.1-1.3-0.1h-1.5V173.8z"/>
	</g>
	<g>
		<path class="st0" d="M88.9,133h18.9c0-2.3,0-4.6,0-6.9c0-2.7,0.3-3,2.9-3.1c16.7-0.4,33.5-0.7,50.2-1c0.6,0,1.2,0,2,0
			c-0.2-8.8-0.3-17.4-0.5-26.3c-1.4,0-2.7,0-3.9,0c-13.7,0.5-27.4,1-41.2,1.6c-6.7,0.3-13.4,0.8-20.1,1.4c-3.9,0.4-6.7,2.6-7.8,6.5
			c-0.6,2.1-0.9,4.4-0.9,6.6c0,6.1,0.2,12.2,0.2,18.3C88.8,131.2,88.8,132.1,88.9,133z"/>
		<path class="st0" d="M18.9,133c0-0.9,0-1.7,0-2.6c0-1.5,0.5-2.3,2.1-2.4c7.3-0.5,14.6-1.2,22-1.7c6.2-0.4,11.2,2.1,14.4,6.7h21.3
			c-1.3-5.2-3.4-10.2-6.5-14.9c-7.4-11.1-17.7-15.5-30.8-13.6c-11.9,1.8-23.7,3.6-35.6,5.3c-2.6,0.4-4.7,1.2-5.7,3.9V133H18.9z"/>
		<path class="st0" d="M171.6,133h19c-0.1-4.5-0.1-7.9-0.1-8.8c0-1.9,0.3-2.3,2.2-2.2c6.7,0.1,13.4,0.3,20.1,0.2
			c9.2-0.2,14.6,4.6,17.5,10.8h20.5c-1.8-8.9-5.8-17.1-12.1-24.6c-5.9-7-13.3-11.6-22.7-11.9c-13.2-0.5-26.4-0.6-39.6-0.8
			c-3.7-0.1-5.1,1.3-5.4,5c-0.1,0.7,0,1.4,0,2.1C171.2,112.9,171.4,122.9,171.6,133z"/>
		<path class="st0" d="M311.7,133c3.5-4.8,9.3-7.1,16.6-6.3c2.3,0.3,32.9,2.5,36.4,2.8v-18.6c-0.3-0.1-0.6-0.2-0.8-0.2
			c-13.6-1.9-27.1-4-40.7-5.6c-6.9-0.8-13.5,0.9-19.1,5.2c-6,4.6-10,10.8-12.3,17.9c-0.5,1.7-1,3.3-1.4,5H311.7z"/>
		<path class="st0" d="M280,133c-0.1-10.9-0.3-21.9-0.4-32.9c-6.5-0.5-12.8-0.9-19.2-1.4c0.2,11.5,0.3,22.9,0.5,34.3H280z"/>
		<path class="st0" d="M364.7,142.6c-6.3-0.3-12.4-0.5-18.7-0.8c0,0.9,0,1.5,0,2.1c0,5.9,0,11.8,0.1,17.7c0,1.3-0.3,2.2-1.8,2.3
			c-6.4,0.3-12.8,0.7-19.1,0.9c-3,0.1-5.8-0.7-8.3-2.5c-7-4.9-9.4-11.9-8.5-20.1c0.3-2.3,0.8-4.3,1.6-6.1h-20.2
			c-1.7,10.2-0.3,20.3,4,30.1c2.4,5.4,5.7,10.2,10.4,13.9c7,5.4,14.8,7.4,23.7,6.1c10.7-1.6,21.5-2.9,32.3-4.3
			c3.3-0.4,4.7-2,4.7-5.5c0-10.8,0-21.6,0-32.4C364.8,143.7,364.8,143.2,364.7,142.6z"/>
		<path class="st0" d="M231.5,136.2c2.6,8.2,2.1,16.2-2.8,23.6c-3.1,4.7-7.5,7.1-13.1,7.2c-3.6,0.1-18.3,0.1-22,0.1
			c-2.3,0-2.5-0.2-2.5-2.5c-0.1-6.5-0.3-19.1-0.5-28.5h-19c0.1,2.7,0.1,5.4,0.2,8.1c0.2,13.8,0.4,27.7,0.6,41.5
			c0,1.2,0.1,2.4,0.2,3.5c0.5,3.2,2,4.5,5.2,4.5c13.2-0.1,26.5-0.1,39.7-0.4c2.4,0,4.8-0.6,7.1-1.3c7.3-2.1,12.5-7.1,16.9-13
			c6.3-8.5,9.5-18.2,10.3-28.7c0.4-4.9,0.2-9.7-0.5-14.3H231.5z"/>
		<path class="st0" d="M260.9,136.2c0.3,18.6,0.5,37.1,0.8,55.7c6.4-0.4,12.6-0.7,19.1-1.1c-0.2-18.3-0.5-36.4-0.7-54.6H260.9z"/>
		<path class="st0" d="M59.2,136.2c1,2.2,1.6,4.7,1.9,7.4c0.6,6.1-1,11.7-5.3,16.3c-2.9,3-6.8,4.4-10.9,4.4
			c-8.1-0.1-16.2-0.5-24.3-0.8c-1.3,0-1.5-0.9-1.5-2c0-5.3,0-10.5,0-15.8H19c0-3.2,0-6.3,0-9.5H0v41.9c0.7,2.4,2.4,3.6,4.8,3.8
			c2.2,0.2,4.5,0.5,6.7,0.7c7.2,0.8,14.4,1.6,21.5,2.4c4.5,0.5,9,1.2,13.6,1.3c6.9,0.2,13.4-1.4,18.9-6c4.2-3.6,7.6-7.8,9.9-12.9
			c2.5-5.4,4-11.1,4.5-17c0.4-4.9,0.2-9.6-0.5-14.2H59.2z"/>
		<path class="st0" d="M162,167.8c-8.7-0.1-17.4-0.1-26.1-0.3c-8.4-0.1-16.7-0.3-25.1-0.5c-1.2,0-2.5-0.1-2.5-1.6
			c-0.1-3.9,0-7.8,0-11.9c0.7,0,1.3,0,2,0c17,0.1,33.9,0.1,50.9,0.2c1.4,0,1.9-0.3,1.8-1.8c-0.2-4.9-0.2-9.9-0.2-14.8
			c0-0.4,0-0.7,0-1H88.9c0.2,14.3,0.3,28.6,0.6,42.9c0,2,0.6,4.2,1.3,6.1c1.3,3.4,4,5.3,7.6,5.5c7.9,0.5,15.7,1,23.6,1.3
			c13.4,0.6,26.9,1,40.4,1.5c0.4,0,0.8-0.1,1.3-0.1c0-0.3,0.1-0.6,0.1-0.8c-0.1-7.8-0.2-15.7-0.3-23.5
			C163.6,167.8,162.9,167.8,162,167.8z"/>
	</g>
</g>
</svg>
